<svg id="visual" viewBox="0 0 900 600" width="900" height="600" xmlns="http://www.w3.org/2000/svg" xmlns:xlink="http://www.w3.org/1999/xlink" version="1.1"><rect x="0" y="0" width="900" height="600" fill="#07032E"></rect><defs><linearGradient id="grad1_0" x1="33.3%" y1="0%" x2="100%" y2="100%"><stop offset="20%" stop-color="#671338" stop-opacity="1"></stop><stop offset="80%" stop-color="#671338" stop-opacity="1"></stop></linearGradient></defs><defs><linearGradient id="grad1_1" x1="33.3%" y1="0%" x2="100%" y2="100%"><stop offset="20%" stop-color="#671338" stop-opacity="1"></stop><stop offset="80%" stop-color="#4a0d3b" stop-opacity="1"></stop></linearGradient></defs><defs><linearGradient id="grad1_2" x1="33.3%" y1="0%" x2="100%" y2="100%"><stop offset="20%" stop-color="#2a0c37" stop-opacity="1"></stop><stop offset="80%" stop-color="#4a0d3b" stop-opacity="1"></stop></linearGradient></defs><defs><linearGradient id="grad1_3" x1="33.3%" y1="0%" x2="100%" y2="100%"><stop offset="20%" stop-color="#2a0c37" stop-opacity="1"></stop><stop offset="80%" stop-color="#07032e" stop-opacity="1"></stop></linearGradient></defs><defs><linearGradient id="grad2_0" x1="0%" y1="0%" x2="66.7%" y2="100%"><stop offset="20%" stop-color="#671338" stop-opacity="1"></stop><stop offset="80%" stop-color="#671338" stop-opacity="1"></stop></linearGradient></defs><defs><linearGradient id="grad2_1" x1="0%" y1="0%" x2="66.7%" y2="100%"><stop offset="20%" stop-color="#4a0d3b" stop-opacity="1"></stop><stop offset="80%" stop-color="#671338" stop-opacity="1"></stop></linearGradient></defs><defs><linearGradient id="grad2_2" x1="0%" y1="0%" x2="66.7%" y2="100%"><stop offset="20%" stop-color="#4a0d3b" stop-opacity="1"></stop><stop offset="80%" stop-color="#2a0c37" stop-opacity="1"></stop></linearGradient></defs><defs><linearGradient id="grad2_3" x1="0%" y1="0%" x2="66.7%" y2="100%"><stop offset="20%" stop-color="#07032e" stop-opacity="1"></stop><stop offset="80%" stop-color="#2a0c37" stop-opacity="1"></stop></linearGradient></defs><g transform="translate(900, 0)"><path d="M0 540.8C-8.3 429.3 -16.7 317.8 -38.5 316.7C-60.2 315.6 -95.4 424.9 -103.9 421.4C-112.3 417.9 -94 301.7 -108.5 286.1C-123 270.5 -170.3 355.5 -211 402C-251.7 448.4 -285.8 456.3 -307.2 445.1C-328.7 433.9 -337.5 403.5 -305.7 345.1C-273.9 286.6 -201.4 200 -213.3 189C-225.2 178 -321.5 242.5 -385.2 265.9C-448.8 289.2 -479.7 271.5 -447.2 234.7C-414.6 197.9 -318.7 142.1 -318.8 120.9C-319 99.8 -415.2 113.3 -424.3 104.6C-433.4 95.9 -355.4 64.9 -360.4 43.8C-365.3 22.6 -453 11.3 -540.8 0L0 0Z" fill="#190a33"></path><path d="M0 405.6C-6.3 322 -12.5 238.3 -28.8 237.5C-45.2 236.7 -71.6 318.6 -77.9 316C-84.2 313.4 -70.5 226.3 -81.4 214.6C-92.3 202.9 -127.7 266.7 -158.2 301.5C-188.8 336.3 -214.3 342.2 -230.4 333.8C-246.5 325.4 -253.1 302.6 -229.3 258.8C-205.4 215 -151.1 150 -160 141.7C-168.9 133.5 -241.2 181.9 -288.9 199.4C-336.6 216.9 -359.8 203.6 -335.4 176C-311 148.4 -239 106.6 -239.1 90.7C-239.2 74.8 -311.4 85 -318.2 78.4C-325.1 71.9 -266.6 48.7 -270.3 32.8C-273.9 17 -339.8 8.5 -405.6 0L0 0Z" fill="#3b0d3a"></path><path d="M0 270.4C-4.2 214.7 -8.3 158.9 -19.2 158.3C-30.1 157.8 -47.7 212.4 -51.9 210.7C-56.2 209 -47 150.9 -54.3 143.1C-61.5 135.3 -85.1 177.8 -105.5 201C-125.8 224.2 -142.9 228.2 -153.6 222.5C-164.3 216.9 -168.8 201.8 -152.8 172.5C-136.9 143.3 -100.7 100 -106.7 94.5C-112.6 89 -160.8 121.2 -192.6 132.9C-224.4 144.6 -239.8 135.7 -223.6 117.3C-207.3 98.9 -159.4 71 -159.4 60.5C-159.5 49.9 -207.6 56.7 -212.2 52.3C-216.7 47.9 -177.7 32.4 -180.2 21.9C-182.6 11.3 -226.5 5.7 -270.4 0L0 0Z" fill="#590f3a"></path><path d="M0 135.2C-2.1 107.3 -4.2 79.4 -9.6 79.2C-15.1 78.9 -23.9 106.2 -26 105.3C-28.1 104.5 -23.5 75.4 -27.1 71.5C-30.8 67.6 -42.6 88.9 -52.7 100.5C-62.9 112.1 -71.4 114.1 -76.8 111.3C-82.2 108.5 -84.4 100.9 -76.4 86.3C-68.5 71.7 -50.4 50 -53.3 47.2C-56.3 44.5 -80.4 60.6 -96.3 66.5C-112.2 72.3 -119.9 67.9 -111.8 58.7C-103.7 49.5 -79.7 35.5 -79.7 30.2C-79.7 24.9 -103.8 28.3 -106.1 26.1C-108.4 24 -88.9 16.2 -90.1 10.9C-91.3 5.7 -113.3 2.8 -135.2 0L0 0Z" fill="#671338"></path></g><g transform="translate(0, 600)"><path d="M0 -540.8C21.8 -539.8 43.6 -538.8 63.8 -525.1C83.9 -511.5 102.3 -485.1 108.2 -438.9C114 -392.6 107.2 -326.6 113.5 -299.2C119.7 -271.8 139 -283.2 146.9 -279.8C154.7 -276.4 151.2 -258.3 205.6 -297.9C260.1 -337.5 372.5 -434.7 358.6 -404.8C344.8 -374.9 204.7 -217.8 226.8 -200.9C248.9 -184 433.1 -307.4 442.8 -305.6C452.4 -303.9 287.6 -177 255.9 -134.3C224.2 -91.6 325.6 -133 364.7 -138.3C403.7 -143.6 380.3 -112.9 379.6 -93.6C379 -74.2 401.2 -66.1 431.8 -52.4C462.5 -38.7 501.7 -19.4 540.8 0L0 0Z" fill="#190a33"></path><path d="M0 -405.6C16.4 -404.9 32.7 -404.1 47.8 -393.9C62.9 -383.6 76.8 -363.8 81.1 -329.1C85.5 -294.5 80.4 -244.9 85.1 -224.4C89.8 -203.9 104.2 -212.4 110.1 -209.9C116 -207.3 113.4 -193.8 154.2 -223.4C195.1 -253.1 279.4 -326.1 269 -303.6C258.6 -281.2 153.5 -163.4 170.1 -150.7C186.7 -138 324.8 -230.5 332.1 -229.2C339.3 -227.9 215.7 -132.8 191.9 -100.7C168.1 -68.7 244.2 -99.7 273.5 -103.7C302.8 -107.7 285.2 -84.7 284.7 -70.2C284.3 -55.6 300.9 -49.6 323.9 -39.3C346.9 -29 376.2 -14.5 405.6 0L0 0Z" fill="#3b0d3a"></path><path d="M0 -270.4C10.9 -269.9 21.8 -269.4 31.9 -262.6C41.9 -255.7 51.2 -242.5 54.1 -219.4C57 -196.3 53.6 -163.3 56.7 -149.6C59.9 -135.9 69.5 -141.6 73.4 -139.9C77.4 -138.2 75.6 -129.2 102.8 -149C130 -168.7 186.2 -217.4 179.3 -202.4C172.4 -187.4 102.4 -108.9 113.4 -100.5C124.4 -92 216.5 -153.7 221.4 -152.8C226.2 -151.9 143.8 -88.5 127.9 -67.2C112.1 -45.8 162.8 -66.5 182.3 -69.1C201.8 -71.8 190.1 -56.5 189.8 -46.8C189.5 -37.1 200.6 -33.1 215.9 -26.2C231.2 -19.4 250.8 -9.7 270.4 0L0 0Z" fill="#590f3a"></path><path d="M0 -135.2C5.5 -135 10.9 -134.7 15.9 -131.3C21 -127.9 25.6 -121.3 27 -109.7C28.5 -98.2 26.8 -81.6 28.4 -74.8C29.9 -68 34.7 -70.8 36.7 -70C38.7 -69.1 37.8 -64.6 51.4 -74.5C65 -84.4 93.1 -108.7 89.7 -101.2C86.2 -93.7 51.2 -54.5 56.7 -50.2C62.2 -46 108.3 -76.8 110.7 -76.4C113.1 -76 71.9 -44.3 64 -33.6C56 -22.9 81.4 -33.2 91.2 -34.6C100.9 -35.9 95.1 -28.2 94.9 -23.4C94.8 -18.5 100.3 -16.5 108 -13.1C115.6 -9.7 125.4 -4.8 135.2 0L0 0Z" fill="#671338"></path></g></svg>