<svg id="visual" viewBox="0 0 900 600" width="900" height="600" xmlns="http://www.w3.org/2000/svg" xmlns:xlink="http://www.w3.org/1999/xlink" version="1.1"><rect x="0" y="0" width="900" height="600" fill="#07032E"></rect><defs><linearGradient id="grad1_0" x1="33.3%" y1="0%" x2="100%" y2="100%"><stop offset="20%" stop-color="#671338" stop-opacity="1"></stop><stop offset="80%" stop-color="#671338" stop-opacity="1"></stop></linearGradient></defs><defs><linearGradient id="grad1_1" x1="33.3%" y1="0%" x2="100%" y2="100%"><stop offset="20%" stop-color="#671338" stop-opacity="1"></stop><stop offset="80%" stop-color="#5b103a" stop-opacity="1"></stop></linearGradient></defs><defs><linearGradient id="grad1_2" x1="33.3%" y1="0%" x2="100%" y2="100%"><stop offset="20%" stop-color="#4f0e3b" stop-opacity="1"></stop><stop offset="80%" stop-color="#5b103a" stop-opacity="1"></stop></linearGradient></defs><defs><linearGradient id="grad1_3" x1="33.3%" y1="0%" x2="100%" y2="100%"><stop offset="20%" stop-color="#4f0e3b" stop-opacity="1"></stop><stop offset="80%" stop-color="#410d3a" stop-opacity="1"></stop></linearGradient></defs><defs><linearGradient id="grad1_4" x1="33.3%" y1="0%" x2="100%" y2="100%"><stop offset="20%" stop-color="#340d39" stop-opacity="1"></stop><stop offset="80%" stop-color="#410d3a" stop-opacity="1"></stop></linearGradient></defs><defs><linearGradient id="grad1_5" x1="33.3%" y1="0%" x2="100%" y2="100%"><stop offset="20%" stop-color="#340d39" stop-opacity="1"></stop><stop offset="80%" stop-color="#250c36" stop-opacity="1"></stop></linearGradient></defs><defs><linearGradient id="grad1_6" x1="33.3%" y1="0%" x2="100%" y2="100%"><stop offset="20%" stop-color="#160a33" stop-opacity="1"></stop><stop offset="80%" stop-color="#250c36" stop-opacity="1"></stop></linearGradient></defs><defs><linearGradient id="grad1_7" x1="33.3%" y1="0%" x2="100%" y2="100%"><stop offset="20%" stop-color="#160a33" stop-opacity="1"></stop><stop offset="80%" stop-color="#07032e" stop-opacity="1"></stop></linearGradient></defs><defs><linearGradient id="grad2_0" x1="0%" y1="0%" x2="66.7%" y2="100%"><stop offset="20%" stop-color="#671338" stop-opacity="1"></stop><stop offset="80%" stop-color="#671338" stop-opacity="1"></stop></linearGradient></defs><defs><linearGradient id="grad2_1" x1="0%" y1="0%" x2="66.7%" y2="100%"><stop offset="20%" stop-color="#5b103a" stop-opacity="1"></stop><stop offset="80%" stop-color="#671338" stop-opacity="1"></stop></linearGradient></defs><defs><linearGradient id="grad2_2" x1="0%" y1="0%" x2="66.7%" y2="100%"><stop offset="20%" stop-color="#5b103a" stop-opacity="1"></stop><stop offset="80%" stop-color="#4f0e3b" stop-opacity="1"></stop></linearGradient></defs><defs><linearGradient id="grad2_3" x1="0%" y1="0%" x2="66.7%" y2="100%"><stop offset="20%" stop-color="#410d3a" stop-opacity="1"></stop><stop offset="80%" stop-color="#4f0e3b" stop-opacity="1"></stop></linearGradient></defs><defs><linearGradient id="grad2_4" x1="0%" y1="0%" x2="66.7%" y2="100%"><stop offset="20%" stop-color="#410d3a" stop-opacity="1"></stop><stop offset="80%" stop-color="#340d39" stop-opacity="1"></stop></linearGradient></defs><defs><linearGradient id="grad2_5" x1="0%" y1="0%" x2="66.7%" y2="100%"><stop offset="20%" stop-color="#250c36" stop-opacity="1"></stop><stop offset="80%" stop-color="#340d39" stop-opacity="1"></stop></linearGradient></defs><defs><linearGradient id="grad2_6" x1="0%" y1="0%" x2="66.7%" y2="100%"><stop offset="20%" stop-color="#250c36" stop-opacity="1"></stop><stop offset="80%" stop-color="#160a33" stop-opacity="1"></stop></linearGradient></defs><defs><linearGradient id="grad2_7" x1="0%" y1="0%" x2="66.7%" y2="100%"><stop offset="20%" stop-color="#07032e" stop-opacity="1"></stop><stop offset="80%" stop-color="#160a33" stop-opacity="1"></stop></linearGradient></defs><g transform="translate(900, 0)"><path d="M0 540.8C-23.7 540 -47.4 539.2 -60.4 497.3C-73.4 455.5 -75.7 372.7 -81.8 332.1C-88 291.4 -98.1 292.9 -119.5 315.1C-140.9 337.3 -173.7 380 -221.2 421.5C-268.7 462.9 -331 503 -307.2 445.1C-283.5 387.2 -173.7 231.4 -189 213.3C-204.2 195.2 -344.5 314.8 -362.3 321C-380.1 327.1 -275.5 219.7 -279 192.6C-282.5 165.5 -394.2 218.7 -416.2 218.4C-438.1 218.2 -370.3 164.4 -360 136.5C-349.7 108.6 -396.8 106.5 -372.8 91.9C-348.9 77.3 -253.9 50.2 -270 32.8C-286.2 15.4 -413.5 7.7 -540.8 0L0 0Z" fill="#0f0630"></path><path d="M0 473.2C-20.7 472.5 -41.5 471.8 -52.8 435.2C-64.2 398.6 -66.2 326.1 -71.6 290.6C-77 255 -85.8 256.3 -104.6 275.7C-123.3 295.1 -152 332.5 -193.6 368.8C-235.1 405 -289.6 440.1 -268.8 389.5C-248 338.8 -152 202.5 -165.4 186.7C-178.7 170.8 -301.4 275.5 -317 280.8C-332.6 286.2 -241 192.2 -244.1 168.5C-247.2 144.8 -344.9 191.3 -364.1 191.1C-383.3 190.9 -324 143.9 -315 119.5C-305.9 95 -347.2 93.2 -326.2 80.4C-305.3 67.6 -222.1 43.9 -236.3 28.7C-250.4 13.5 -361.8 6.7 -473.2 0L0 0Z" fill="#1e0b35"></path><path d="M0 405.6C-17.8 405 -35.5 404.4 -45.3 373C-55 341.6 -56.8 279.5 -61.4 249C-66 218.6 -73.6 219.7 -89.6 236.3C-105.7 252.9 -130.3 285 -165.9 316.1C-201.5 347.2 -248.2 377.2 -230.4 333.8C-212.6 290.4 -130.3 173.6 -141.7 160C-153.2 146.4 -258.4 236.1 -271.7 240.7C-285.1 245.3 -206.6 164.8 -209.2 144.4C-211.9 124.1 -295.7 164 -312.1 163.8C-328.6 163.6 -277.7 123.3 -270 102.4C-262.2 81.5 -297.6 79.9 -279.6 68.9C-261.7 58 -190.4 37.6 -202.5 24.6C-214.6 11.5 -310.1 5.8 -405.6 0L0 0Z" fill="#2c0c38"></path><path d="M0 338C-14.8 337.5 -29.6 337 -37.7 310.8C-45.9 284.7 -47.3 232.9 -51.2 207.5C-55 182.1 -61.3 183.1 -74.7 196.9C-88.1 210.8 -108.6 237.5 -138.3 263.4C-168 289.3 -206.9 314.4 -192 278.2C-177.2 242 -108.6 144.6 -118.1 133.3C-127.6 122 -215.3 196.8 -226.4 200.6C-237.6 204.4 -172.2 137.3 -174.4 120.4C-176.6 103.4 -246.4 136.7 -260.1 136.5C-273.8 136.3 -231.4 102.8 -225 85.3C-218.5 67.9 -248 66.6 -233 57.4C-218.1 48.3 -158.7 31.4 -168.8 20.5C-178.9 9.6 -258.4 4.8 -338 0L0 0Z" fill="#3b0d3a"></path><path d="M0 270.4C-11.8 270 -23.7 269.6 -30.2 248.7C-36.7 227.8 -37.8 186.4 -40.9 166C-44 145.7 -49 146.5 -59.8 157.6C-70.5 168.6 -86.8 190 -110.6 210.7C-134.4 231.5 -165.5 251.5 -153.6 222.5C-141.7 193.6 -86.9 115.7 -94.5 106.7C-102.1 97.6 -172.2 157.4 -181.1 160.5C-190 163.5 -137.7 109.8 -139.5 96.3C-141.3 82.7 -197.1 109.3 -208.1 109.2C-219.1 109.1 -185.2 82.2 -180 68.3C-174.8 54.3 -198.4 53.3 -186.4 45.9C-174.4 38.6 -126.9 25.1 -135 16.4C-143.1 7.7 -206.8 3.8 -270.4 0L0 0Z" fill="#480d3b"></path><path d="M0 202.8C-8.9 202.5 -17.8 202.2 -22.6 186.5C-27.5 170.8 -28.4 139.8 -30.7 124.5C-33 109.3 -36.8 109.9 -44.8 118.2C-52.8 126.5 -65.1 142.5 -83 158.1C-100.8 173.6 -124.1 188.6 -115.2 166.9C-106.3 145.2 -65.2 86.8 -70.9 80C-76.6 73.2 -129.2 118.1 -135.9 120.4C-142.5 122.6 -103.3 82.4 -104.6 72.2C-105.9 62.1 -147.8 82 -156.1 81.9C-164.3 81.8 -138.9 61.7 -135 51.2C-131.1 40.7 -148.8 39.9 -139.8 34.5C-130.8 29 -95.2 18.8 -101.3 12.3C-107.3 5.8 -155.1 2.9 -202.8 0L0 0Z" fill="#550e3a"></path><path d="M0 135.2C-5.9 135 -11.8 134.8 -15.1 124.3C-18.3 113.9 -18.9 93.2 -20.5 83C-22 72.9 -24.5 73.2 -29.9 78.8C-35.2 84.3 -43.4 95 -55.3 105.4C-67.2 115.7 -82.7 125.7 -76.8 111.3C-70.9 96.8 -43.4 57.9 -47.2 53.3C-51.1 48.8 -86.1 78.7 -90.6 80.2C-95 81.8 -68.9 54.9 -69.7 48.1C-70.6 41.4 -98.6 54.7 -104 54.6C-109.5 54.5 -92.6 41.1 -90 34.1C-87.4 27.2 -99.2 26.6 -93.2 23C-87.2 19.3 -63.5 12.5 -67.5 8.2C-71.5 3.8 -103.4 1.9 -135.2 0L0 0Z" fill="#611139"></path><path d="M0 67.6C-3 67.5 -5.9 67.4 -7.5 62.2C-9.2 56.9 -9.5 46.6 -10.2 41.5C-11 36.4 -12.3 36.6 -14.9 39.4C-17.6 42.2 -21.7 47.5 -27.7 52.7C-33.6 57.9 -41.4 62.9 -38.4 55.6C-35.4 48.4 -21.7 28.9 -23.6 26.7C-25.5 24.4 -43.1 39.4 -45.3 40.1C-47.5 40.9 -34.4 27.5 -34.9 24.1C-35.3 20.7 -49.3 27.3 -52 27.3C-54.8 27.3 -46.3 20.6 -45 17.1C-43.7 13.6 -49.6 13.3 -46.6 11.5C-43.6 9.7 -31.7 6.3 -33.8 4.1C-35.8 1.9 -51.7 1 -67.6 0L0 0Z" fill="#671338"></path></g><g transform="translate(0, 600)"><path d="M0 -540.8C11.8 -429.8 23.6 -318.8 33.6 -277C43.7 -235.1 52.1 -262.5 73 -296.1C93.9 -329.8 127.4 -369.8 133.7 -352.5C140 -335.2 119.2 -260.6 132.9 -253.2C146.6 -245.9 194.9 -305.7 228.9 -331.7C263 -357.7 282.9 -349.8 307.7 -347.3C332.5 -344.8 362.2 -347.6 387.7 -343.5C413.2 -339.3 434.5 -328.2 445.1 -307.2C455.7 -286.2 455.6 -255.4 406.4 -213.3C357.2 -171.2 259 -117.8 264.6 -100.4C270.2 -83 379.7 -101.6 385.5 -95C391.2 -88.4 293.2 -56.7 301.8 -36.6C310.4 -16.6 425.6 -8.3 540.8 0L0 0Z" fill="#0f0630"></path><path d="M0 -473.2C10.3 -376.1 20.6 -279 29.4 -242.3C38.2 -205.7 45.6 -229.7 63.9 -259.1C82.2 -288.6 111.4 -323.6 117 -308.4C122.5 -293.3 104.3 -228 116.3 -221.6C128.3 -215.1 170.5 -267.5 200.3 -290.2C230.1 -312.9 247.5 -306.1 269.2 -303.9C290.9 -301.7 316.9 -304.2 339.3 -300.6C361.6 -296.9 380.2 -287.2 389.5 -268.8C398.7 -250.5 398.6 -223.5 355.6 -186.6C312.6 -149.8 226.6 -103 231.5 -87.8C236.4 -72.6 332.3 -88.9 337.3 -83.1C342.3 -77.4 256.5 -49.6 264.1 -32.1C271.6 -14.5 372.4 -7.3 473.2 0L0 0Z" fill="#1e0b35"></path><path d="M0 -405.6C8.8 -322.4 17.7 -239.1 25.2 -207.7C32.8 -176.3 39.1 -196.9 54.7 -222.1C70.4 -247.4 95.5 -277.3 100.3 -264.4C105 -251.4 89.4 -195.5 99.7 -189.9C110 -184.4 146.1 -229.3 171.7 -248.7C197.2 -268.2 212.2 -262.4 230.8 -260.5C249.4 -258.6 271.7 -260.7 290.8 -257.6C309.9 -254.5 325.9 -246.2 333.8 -230.4C341.8 -214.7 341.7 -191.6 304.8 -160C267.9 -128.4 194.2 -88.3 198.5 -75.3C202.7 -62.2 284.8 -76.2 289.1 -71.3C293.4 -66.3 219.9 -42.5 226.3 -27.5C232.8 -12.5 319.2 -6.2 405.6 0L0 0Z" fill="#2c0c38"></path><path d="M0 -338C7.4 -268.6 14.7 -199.3 21 -173.1C27.3 -147 32.5 -164 45.6 -185.1C58.7 -206.1 79.6 -231.1 83.6 -220.3C87.5 -209.5 74.5 -162.9 83.1 -158.3C91.6 -153.7 121.8 -191 143.1 -207.3C164.4 -223.5 176.8 -218.6 192.3 -217.1C207.8 -215.5 226.4 -217.3 242.3 -214.7C258.3 -212.1 271.6 -205.1 278.2 -192C284.8 -178.9 284.7 -159.6 254 -133.3C223.3 -107 161.9 -73.6 165.4 -62.7C168.9 -51.8 237.3 -63.5 240.9 -59.4C244.5 -55.3 183.2 -35.4 188.6 -22.9C194 -10.4 266 -5.2 338 0L0 0Z" fill="#3b0d3a"></path><path d="M0 -270.4C5.9 -214.9 11.8 -159.4 16.8 -138.5C21.9 -117.6 26 -131.2 36.5 -148.1C47 -164.9 63.7 -184.9 66.8 -176.3C70 -167.6 59.6 -130.3 66.5 -126.6C73.3 -122.9 97.4 -152.8 114.5 -165.8C131.5 -178.8 141.4 -174.9 153.8 -173.7C166.2 -172.4 181.1 -173.8 193.9 -171.7C206.6 -169.7 217.3 -164.1 222.5 -153.6C227.8 -143.1 227.8 -127.7 203.2 -106.7C178.6 -85.6 129.5 -58.9 132.3 -50.2C135.1 -41.5 189.9 -50.8 192.7 -47.5C195.6 -44.2 146.6 -28.3 150.9 -18.3C155.2 -8.3 212.8 -4.2 270.4 0L0 0Z" fill="#480d3b"></path><path d="M0 -202.8C4.4 -161.2 8.8 -119.6 12.6 -103.9C16.4 -88.2 19.5 -98.4 27.4 -111.1C35.2 -123.7 47.8 -138.7 50.1 -132.2C52.5 -125.7 44.7 -97.7 49.8 -95C55 -92.2 73.1 -114.6 85.8 -124.4C98.6 -134.1 106.1 -131.2 115.4 -130.2C124.7 -129.3 135.8 -130.4 145.4 -128.8C155 -127.3 162.9 -123.1 166.9 -115.2C170.9 -107.3 170.8 -95.8 152.4 -80C134 -64.2 97.1 -44.2 99.2 -37.6C101.3 -31.1 142.4 -38.1 144.5 -35.6C146.7 -33.2 109.9 -21.3 113.2 -13.7C116.4 -6.2 159.6 -3.1 202.8 0L0 0Z" fill="#550e3a"></path><path d="M0 -135.2C2.9 -107.5 5.9 -79.7 8.4 -69.2C10.9 -58.8 13 -65.6 18.2 -74C23.5 -82.5 31.8 -92.4 33.4 -88.1C35 -83.8 29.8 -65.2 33.2 -63.3C36.7 -61.5 48.7 -76.4 57.2 -82.9C65.7 -89.4 70.7 -87.5 76.9 -86.8C83.1 -86.2 90.6 -86.9 96.9 -85.9C103.3 -84.8 108.6 -82.1 111.3 -76.8C113.9 -71.6 113.9 -63.9 101.6 -53.3C89.3 -42.8 64.7 -29.4 66.2 -25.1C67.6 -20.7 94.9 -25.4 96.4 -23.8C97.8 -22.1 73.3 -14.2 75.4 -9.2C77.6 -4.2 106.4 -2.1 135.2 0L0 0Z" fill="#611139"></path><path d="M0 -67.6C1.5 -53.7 2.9 -39.9 4.2 -34.6C5.5 -29.4 6.5 -32.8 9.1 -37C11.7 -41.2 15.9 -46.2 16.7 -44.1C17.5 -41.9 14.9 -32.6 16.6 -31.7C18.3 -30.7 24.4 -38.2 28.6 -41.5C32.9 -44.7 35.4 -43.7 38.5 -43.4C41.6 -43.1 45.3 -43.5 48.5 -42.9C51.7 -42.4 54.3 -41 55.6 -38.4C57 -35.8 56.9 -31.9 50.8 -26.7C44.7 -21.4 32.4 -14.7 33.1 -12.5C33.8 -10.4 47.5 -12.7 48.2 -11.9C48.9 -11.1 36.6 -7.1 37.7 -4.6C38.8 -2.1 53.2 -1 67.6 0L0 0Z" fill="#671338"></path></g></svg>